<svg width="16" height="16" viewBox="0 0 16 16" fill="none" xmlns="http://www.w3.org/2000/svg">
<path fill-rule="evenodd" clip-rule="evenodd" d="M2 7.99998C2 4.87037 4.53705 2.33331 7.66667 2.33331C10.7963 2.33331 13.3333 4.87037 13.3333 7.99998C13.3333 11.1296 10.7963 13.6666 7.66667 13.6666C4.53705 13.6666 2 11.1296 2 7.99998ZM7.66667 0.333313C3.43248 0.333313 0 3.7658 0 7.99998C0 12.2342 3.43248 15.6666 7.66667 15.6666C11.9008 15.6666 15.3333 12.2342 15.3333 7.99998C15.3333 3.7658 11.9008 0.333313 7.66667 0.333313ZM8.66675 4.00006C8.66675 3.44778 8.21903 3.00006 7.66675 3.00006C7.11446 3.00006 6.66675 3.44778 6.66675 4.00006V8.11473V8.11494C6.66688 8.73368 6.91276 9.32703 7.35031 9.7645L7.35042 9.76461L8.95964 11.3738C9.35017 11.7644 9.98333 11.7644 10.3739 11.3738C10.7644 10.9833 10.7644 10.3501 10.3739 9.95962L8.76452 8.35029L8.76441 8.35018C8.70195 8.28773 8.66682 8.20305 8.66675 8.11473V8.11451V4.00006Z" fill="#222222"/>
</svg>
