<svg width="33" height="32" viewBox="0 0 33 32" fill="none" xmlns="http://www.w3.org/2000/svg">
<rect x="0.0136719" width="32" height="32" rx="6" fill="#4A68A8"/>
<path d="M16.0137 24C20.4319 24 24.0137 20.4183 24.0137 16C24.0137 11.5817 20.4319 8 16.0137 8C11.5954 8 8.01367 11.5817 8.01367 16C8.01367 20.4183 11.5954 24 16.0137 24Z" fill="white"/>
<path d="M19.1281 18.3131L19.4825 16.0001H17.264V14.4993C17.264 13.8671 17.5734 13.2494 18.5679 13.2494H19.577V11.2806C19.577 11.2806 18.6613 11.1243 17.786 11.1243C15.959 11.1243 14.7642 12.2313 14.7642 14.2372V16.0001H12.7324V18.3131H14.7642V23.9033C15.1715 23.9675 15.5884 24 16.0137 24C16.4389 24 16.8567 23.9663 17.264 23.9033V18.3131H19.1281Z" fill="#4A68A8"/>
</svg>
