<svg width="107" height="26" viewBox="0 0 107 26" fill="none" xmlns="http://www.w3.org/2000/svg">
<path d="M80.5565 13.0291C80.5565 15.2446 80.078 17.4601 79.1212 19.359C77.6859 22.0493 75.4533 23.9482 72.5827 24.8977C68.9148 26.1637 65.2469 26.1637 61.7384 24.7395C57.5921 23.157 55.0405 19.992 54.2431 15.7193C53.7647 13.0291 53.9241 10.4971 54.881 7.96516C56.1568 4.4837 58.7084 2.10998 62.2168 0.843994C66.0442 -0.421992 69.8716 -0.263751 73.5396 1.31873C77.048 2.74297 79.1212 5.27494 80.078 8.91465C80.397 10.3389 80.5565 11.7631 80.5565 13.0291ZM73.3801 13.0291C73.3801 11.7631 73.2206 10.4971 72.5827 9.54765C71.4664 7.33217 69.0743 6.06618 66.3632 6.38268C63.8116 6.69918 62.2168 7.96516 61.4195 10.3389C60.941 11.7631 60.941 13.1874 61.1005 14.6116C61.5789 17.7766 63.9711 19.6755 67.0011 19.6755C69.2337 19.6755 71.1474 18.8843 72.2638 16.9853C73.2206 15.8776 73.3801 14.4533 73.3801 13.0291Z" fill="white"/>
<path d="M33.033 15.4028C33.033 16.5105 33.6709 17.46 34.4682 18.093C35.744 19.2007 37.3388 19.5172 38.9335 19.6755C40.6878 19.8337 42.2825 19.5173 43.8773 19.0425C44.3557 18.8843 44.9936 18.726 45.472 18.726C46.5883 18.5678 47.5452 18.8843 48.3426 19.8337C48.9805 20.7832 48.9805 21.891 48.502 22.8405C47.8641 24.1064 46.5883 24.7394 45.3125 25.2142C42.7609 26.0054 40.0499 26.1637 37.3388 25.8472C35.4251 25.6889 33.6709 25.0559 31.9166 24.2647C29.2056 22.8405 27.4513 20.625 26.654 17.7765C25.6971 14.4533 25.6971 11.1301 26.8134 7.96513C28.4082 3.69243 31.5977 1.3187 36.2225 0.527459C38.6146 0.210962 41.0067 0.36921 43.3988 1.3187C46.7478 2.74293 48.821 5.27491 49.6184 8.75637C49.9373 10.0224 50.0968 11.2883 49.9373 12.7126C49.7778 14.4533 48.821 15.4028 47.0668 15.561C46.5883 15.561 46.2694 15.561 45.791 15.561C41.8041 15.561 37.8172 15.561 33.8303 15.561C33.5114 15.4028 33.3519 15.4028 33.033 15.4028ZM33.033 10.6553C36.3819 10.6553 39.5714 10.6553 42.7609 10.6553C43.0799 8.91462 42.2825 7.33214 41.0067 6.5409C38.9335 5.43316 36.063 5.74965 34.3088 7.49038C33.5114 8.43987 33.033 9.38936 33.033 10.6553Z" fill="white"/>
<path d="M10.8659 25.8472C8.63323 25.8472 6.40058 25.5307 4.16793 24.7395C2.89213 24.2647 1.7758 23.6318 0.978425 22.524C0.659475 21.7328 0.5 20.9415 0.5 20.1503C0.659475 18.7261 1.45685 17.9348 2.89213 17.9348C3.53003 17.9348 4.16793 18.0931 4.80583 18.4096C6.2411 19.0426 7.5169 19.8338 9.11165 20.1503C10.5469 20.4668 11.9822 20.4668 13.4175 20.1503C13.577 20.1503 13.8959 19.992 14.0554 19.992C15.3312 19.3591 15.4907 17.9348 14.3743 17.1436C13.577 16.6688 12.6201 16.3523 11.6633 16.0358C10.0685 15.5611 8.47375 15.2446 6.879 14.7698C5.28425 14.2951 3.84898 13.5039 2.73265 12.2379C0.81895 9.86415 0.340525 4.64196 4.3274 1.95174C5.92215 0.844004 7.67638 0.369262 9.59008 0.211014C11.9822 0.0527655 14.5338 0.211014 16.7665 1.00225C17.8828 1.31875 18.8396 1.7935 19.7965 2.58474C20.4344 3.05948 20.7533 3.85072 20.7533 4.64196C20.7533 6.54094 19.4775 7.64868 17.5638 7.33218C16.7665 7.17394 15.9691 6.85744 15.1717 6.69919C13.577 6.0662 11.9822 5.59145 10.228 5.7497C10.0685 5.7497 9.74955 5.7497 9.59008 5.90795C8.95218 6.0662 8.47375 6.38269 8.31428 7.01568C8.1548 7.80692 8.31428 8.28168 8.95218 8.75642C9.74955 9.38941 10.7064 9.54766 11.6633 9.70591C13.0985 10.0224 14.5338 10.3389 15.9691 10.8136C17.0854 11.1301 18.0423 11.6049 18.9991 12.0796C20.9128 13.1874 21.8697 14.7698 22.0291 16.9853C22.1886 19.359 21.7102 21.5745 19.7965 23.3153C18.5207 24.423 16.9259 25.2142 15.3312 25.3725C13.8959 25.689 12.4606 25.8472 10.8659 25.8472C10.8659 26.0055 10.8659 26.0055 10.8659 25.8472Z" fill="white"/>
<path d="M95.2281 8.28163C95.866 7.33214 96.5039 6.5409 97.1418 5.74966C98.0987 4.48368 99.0555 3.37593 100.012 2.10995C101.448 0.210968 103.84 0.369224 105.116 1.63521C106.391 2.74295 106.391 4.80017 105.435 6.06615C103.68 8.28163 101.926 10.4971 100.012 12.7126C99.6934 13.0291 99.6934 13.1873 100.012 13.5038C101.926 15.8776 103.84 18.093 105.753 20.4667C106.87 21.7327 106.71 23.6317 105.435 24.8977C104.159 26.0054 102.245 26.0054 100.969 24.7394C100.012 23.6317 99.0555 22.524 98.2582 21.4162C97.3013 20.3085 96.3445 19.2008 95.5471 18.093C95.5471 18.093 95.3876 17.9348 95.3876 17.7765C95.0686 18.093 94.9092 18.4095 94.7497 18.5678C93.1549 20.4667 91.5602 22.3657 89.9654 24.1065C89.0086 25.2142 87.8923 25.8472 86.2975 25.5307C84.0649 25.0559 83.108 22.2075 84.5433 20.4667C86.6165 18.093 88.5302 15.7193 90.6033 13.1873L90.7628 13.0291C89.6465 11.6048 88.5302 10.3389 87.4138 8.91463C86.6165 7.96514 85.8191 7.01564 85.0217 6.06615C83.7459 4.80017 84.0649 2.58469 85.3407 1.47695C86.7759 0.210966 88.6896 0.369221 89.9654 1.79346C91.0818 3.05944 92.1981 4.48367 93.3144 5.90791C93.9523 6.5409 94.5902 7.33214 95.2281 8.28163Z" fill="white"/>
</svg>
