<svg width="33" height="32" viewBox="0 0 33 32" fill="none" xmlns="http://www.w3.org/2000/svg">
<rect x="0.0136719" width="32" height="32" rx="6" fill="#1DA1F2"/>
<path d="M24.0137 11.0392C23.425 11.3003 22.7923 11.4767 22.1284 11.5561C22.8061 11.1498 23.3266 10.5066 23.5717 9.74C22.9373 10.1162 22.2349 10.3894 21.4871 10.5366C20.8884 9.89856 20.0353 9.5 19.0911 9.5C17.2783 9.5 15.8085 10.9697 15.8085 12.7825C15.8085 13.0398 15.8375 13.2903 15.8935 13.5306C13.1653 13.3937 10.7466 12.0868 9.12757 10.1008C8.84501 10.5856 8.68309 11.1494 8.68309 11.751C8.68309 12.8899 9.26261 13.8946 10.1434 14.4833C9.60533 14.4662 9.09917 14.3186 8.65661 14.0727C8.65623 14.0864 8.65623 14.1002 8.65623 14.114C8.65623 15.7044 9.78776 17.0311 11.2894 17.3328C11.014 17.4079 10.724 17.4479 10.4246 17.4479C10.2131 17.4479 10.0075 17.4273 9.80704 17.3891C10.2248 18.6931 11.437 19.6422 12.8735 19.6686C11.7501 20.5491 10.3347 21.0739 8.79671 21.0739C8.53175 21.0739 8.27047 21.0583 8.01367 21.0279C9.46639 21.9594 11.1918 22.5028 13.0456 22.5028C19.0834 22.5028 22.3853 17.501 22.3853 13.163C22.3853 13.0207 22.3821 12.8792 22.3758 12.7383C23.0171 12.2756 23.5735 11.6975 24.0136 11.0392H24.0137Z" fill="white"/>
</svg>
