<svg width="129" height="32" viewBox="0 0 129 32" fill="none" xmlns="http://www.w3.org/2000/svg">
<rect x="0.986328" width="127.027" height="31.0445" rx="6" fill="#25D366"/>
<path d="M9.98633 23.0445L11.0517 19.1848C10.3967 18.0512 10.0531 16.7674 10.0551 15.4613C10.0472 11.344 13.4027 8 17.5269 8C19.5279 8 21.4071 8.77333 22.8224 10.1838C24.2377 11.5943 25.0135 13.4671 25.0135 15.4613C25.0135 19.5713 21.6585 22.9157 17.5343 22.9157C16.2838 22.9173 15.0534 22.6042 13.9585 22.0057L9.98633 23.0445ZM14.1337 20.6634L14.3619 20.8C15.3193 21.3649 16.4129 21.6635 17.5273 21.6644C20.9511 21.6644 23.7436 18.8812 23.7436 15.4691C23.7436 13.8158 23.097 12.2539 21.9253 11.0859C20.7527 9.91877 19.1853 9.26646 17.5264 9.26646C14.0948 9.26646 11.3022 12.0496 11.3022 15.4617C11.3022 16.6297 11.6295 17.7748 12.2537 18.7602L12.3982 18.9957L11.7666 21.2857L14.1337 20.6634Z" fill="white"/>
<path d="M9.98633 23.0445L11.0517 19.1848C10.3967 18.0512 10.0531 16.7674 10.0551 15.4613C10.0472 11.344 13.4027 8 17.5269 8C19.5279 8 21.4071 8.77333 22.8224 10.1838C24.2377 11.5943 25.0135 13.4671 25.0135 15.4613C25.0135 19.5713 21.6585 22.9157 17.5343 22.9157C16.2838 22.9173 15.0534 22.6042 13.9585 22.0057L9.98633 23.0445ZM14.1337 20.6634L14.3619 20.8C15.3193 21.3649 16.4129 21.6635 17.5273 21.6644C20.9511 21.6644 23.7436 18.8812 23.7436 15.4691C23.7436 13.8158 23.097 12.2539 21.9253 11.0859C20.7527 9.91877 19.1853 9.26646 17.5264 9.26646C14.0948 9.26646 11.3022 12.0496 11.3022 15.4617C11.3022 16.6297 11.6295 17.7748 12.2537 18.7602L12.3982 18.9957L11.7666 21.2857L14.1337 20.6634Z" fill="white"/>
<path fill-rule="evenodd" clip-rule="evenodd" d="M15.6632 12.3371C15.5265 12.0262 15.3741 12.0188 15.2449 12.0188C15.1305 12.011 15.0088 12.011 14.8795 12.011C14.7578 12.011 14.5523 12.0565 14.3775 12.2461C14.2023 12.4356 13.7231 12.8832 13.7231 13.8009C13.7231 14.7183 14.3929 15.6057 14.484 15.7267C14.5751 15.8481 15.7775 17.7894 17.6795 18.5402C19.2622 19.1618 19.582 19.0407 19.9245 19.0026C20.2666 18.9648 21.0275 18.5554 21.1874 18.1152C21.3394 17.6832 21.3394 17.3041 21.2939 17.2282C21.2483 17.1523 21.1186 17.1068 20.936 17.0083C20.7459 16.9172 19.833 16.4627 19.6578 16.4016C19.483 16.3408 19.3612 16.3105 19.2394 16.4926C19.1176 16.6822 18.7602 17.0994 18.6459 17.2204C18.5394 17.3419 18.4255 17.357 18.2429 17.266C18.0523 17.1753 17.4517 16.978 16.736 16.3408C16.181 15.8481 15.8082 15.234 15.6939 15.0518C15.5874 14.8623 15.6785 14.7638 15.7775 14.6727C15.8612 14.5894 15.9681 14.4528 16.0592 14.3466C16.1503 14.2403 16.1805 14.157 16.2493 14.0356C16.3102 13.9146 16.2795 13.8005 16.234 13.7099C16.1884 13.6262 15.8305 12.7088 15.6632 12.3371Z" fill="white"/>
<path d="M35.3372 12.4204C34.7105 12.4204 34.2253 12.6567 33.8816 13.1294C33.5378 13.5985 33.366 14.2537 33.366 15.0952C33.366 16.8462 34.023 17.7217 35.3372 17.7217C35.8886 17.7217 36.5564 17.5838 37.3406 17.3081V18.7046C36.696 18.9731 35.9763 19.1074 35.1814 19.1074C34.0391 19.1074 33.1654 18.7619 32.5603 18.0708C31.9552 17.3761 31.6526 16.3807 31.6526 15.0845C31.6526 14.2681 31.8012 13.5537 32.0984 12.9414C32.3956 12.3255 32.8217 11.8547 33.3767 11.5288C33.9353 11.1994 34.5888 11.0347 35.3372 11.0347C36.0999 11.0347 36.8661 11.2191 37.636 11.5879L37.0989 12.9414C36.8053 12.8018 36.5098 12.68 36.2126 12.5762C35.9154 12.4723 35.6236 12.4204 35.3372 12.4204ZM46.1438 15.063C46.1438 16.3628 45.8215 17.3618 45.177 18.0601C44.5325 18.7583 43.6086 19.1074 42.4055 19.1074C41.2024 19.1074 40.2786 18.7583 39.634 18.0601C38.9895 17.3618 38.6672 16.3592 38.6672 15.0522C38.6672 13.7453 38.9895 12.748 39.634 12.0605C40.2821 11.3695 41.2096 11.0239 42.4163 11.0239C43.623 11.0239 44.545 11.3713 45.1824 12.0659C45.8233 12.7606 46.1438 13.7596 46.1438 15.063ZM40.4128 15.063C40.4128 15.9403 40.5793 16.6009 40.9124 17.0449C41.2454 17.4889 41.7431 17.7109 42.4055 17.7109C43.734 17.7109 44.3982 16.8283 44.3982 15.063C44.3982 13.2941 43.7375 12.4097 42.4163 12.4097C41.7538 12.4097 41.2543 12.6335 40.9177 13.0811C40.5811 13.5251 40.4128 14.1857 40.4128 15.063ZM51.0959 19L49.2053 12.8394H49.157C49.225 14.0926 49.259 14.9287 49.259 15.3477V19H47.7712V11.1475H50.0378L51.8962 17.1523H51.9285L53.8997 11.1475H56.1663V19H54.614V15.2832C54.614 15.1077 54.6158 14.9054 54.6194 14.6763C54.6265 14.4471 54.6516 13.8384 54.6946 12.8501H54.6462L52.6213 19H51.0959ZM59.8132 14.8428H60.3611C60.8731 14.8428 61.2563 14.7425 61.5105 14.542C61.7647 14.3379 61.8918 14.0425 61.8918 13.6558C61.8918 13.2655 61.7844 12.9772 61.5696 12.791C61.3583 12.6048 61.0253 12.5117 60.5706 12.5117H59.8132V14.8428ZM63.573 13.5967C63.573 14.4417 63.308 15.0881 62.7781 15.5356C62.2517 15.9832 61.5015 16.207 60.5276 16.207H59.8132V19H58.1482V11.1475H60.6565C61.609 11.1475 62.3323 11.3534 62.8264 11.7651C63.3241 12.1733 63.573 12.7839 63.573 13.5967ZM69.8625 19L69.2932 17.1309H66.4304L65.8611 19H64.0671L66.8386 11.1152H68.8743L71.6565 19H69.8625ZM68.8958 15.7344C68.3694 14.0407 68.0722 13.0828 68.0042 12.8608C67.9397 12.6388 67.8931 12.4634 67.8645 12.3345C67.7463 12.7928 67.408 13.9261 66.8494 15.7344H68.8958ZM74.3152 14.6333H74.8523C75.3787 14.6333 75.7672 14.5456 76.0178 14.3701C76.2685 14.1947 76.3938 13.9189 76.3938 13.543C76.3938 13.1706 76.2649 12.9056 76.0071 12.748C75.7528 12.5905 75.3572 12.5117 74.8201 12.5117H74.3152V14.6333ZM74.3152 15.9868V19H72.6501V11.1475H74.9382C76.0053 11.1475 76.7948 11.3426 77.3069 11.7329C77.8189 12.1196 78.075 12.7087 78.075 13.5C78.075 13.9619 77.9478 14.3737 77.6936 14.7354C77.4394 15.0934 77.0795 15.3745 76.614 15.5786C77.7957 17.3439 78.5655 18.4844 78.9236 19H77.0759L75.2014 15.9868H74.3152ZM82.9412 19H81.2761V12.5332H79.1438V11.1475H85.0735V12.5332H82.9412V19ZM86.282 19V11.1475H87.947V19H86.282ZM89.9236 19V11.1475H91.5886V17.625H94.7737V19H89.9236ZM102.578 19H100.918V15.6108H97.8083V19H96.1433V11.1475H97.8083V14.2251H100.918V11.1475H102.578V19ZM109.372 19L108.803 17.1309H105.94L105.371 19H103.577L106.348 11.1152H108.384L111.166 19H109.372ZM108.406 15.7344C107.879 14.0407 107.582 13.0828 107.514 12.8608C107.449 12.6388 107.403 12.4634 107.374 12.3345C107.256 12.7928 106.918 13.9261 106.359 15.7344H108.406ZM113.825 14.6333H114.362C114.888 14.6333 115.277 14.5456 115.528 14.3701C115.778 14.1947 115.904 13.9189 115.904 13.543C115.904 13.1706 115.775 12.9056 115.517 12.748C115.263 12.5905 114.867 12.5117 114.33 12.5117H113.825V14.6333ZM113.825 15.9868V19H112.16V11.1475H114.448C115.515 11.1475 116.305 11.3426 116.817 11.7329C117.329 12.1196 117.585 12.7087 117.585 13.5C117.585 13.9619 117.458 14.3737 117.203 14.7354C116.949 15.0934 116.589 15.3745 116.124 15.5786C117.305 17.3439 118.075 18.4844 118.433 19H116.586L114.711 15.9868H113.825Z" fill="white"/>
</svg>
